<svg width="277" height="45" viewBox="0 0 277 45" fill="none" xmlns="http://www.w3.org/2000/svg">
<path d="M28.7898 14.656H27.3138C27.2418 13.624 27.0738 12.76 26.8098 12.064C26.5458 11.368 26.1618 10.828 25.6578 10.444C25.1778 10.036 24.5658 9.748 23.8218 9.58C23.0778 9.412 22.1898 9.328 21.1578 9.328C20.2698 9.328 19.5498 9.352 18.9978 9.4C18.4698 9.424 18.0618 9.484 17.7738 9.58C17.4858 9.676 17.2938 9.796 17.1978 9.94C17.1258 10.06 17.0898 10.228 17.0898 10.444V29.704C17.0898 30.472 17.1378 31.132 17.2338 31.684C17.3538 32.236 17.5698 32.692 17.8818 33.052C18.2178 33.388 18.6858 33.652 19.2858 33.844C19.9098 34.012 20.7258 34.108 21.7338 34.132V35.5H8.12575V34.132C9.13375 34.108 9.94975 34.012 10.5738 33.844C11.1978 33.652 11.6658 33.388 11.9778 33.052C12.3138 32.692 12.5298 32.236 12.6258 31.684C12.7458 31.132 12.8058 30.472 12.8058 29.704V10.444C12.8058 10.228 12.7578 10.06 12.6618 9.94C12.5898 9.796 12.4218 9.676 12.1578 9.58C11.9178 9.484 11.5698 9.424 11.1138 9.4C10.6578 9.352 10.0458 9.328 9.27775 9.328C8.34175 9.328 7.46575 9.364 6.64975 9.436C5.85775 9.508 5.16175 9.724 4.56175 10.084C3.98575 10.42 3.51775 10.948 3.15775 11.668C2.79775 12.388 2.60575 13.384 2.58175 14.656H1.24975V7.78H28.4298L28.7898 14.656ZM43.237 32.152C41.197 34.624 38.665 35.86 35.641 35.86C34.225 35.86 32.941 35.632 31.789 35.176C30.637 34.696 29.641 34.036 28.801 33.196C27.985 32.332 27.349 31.312 26.893 30.136C26.437 28.936 26.209 27.616 26.209 26.176C26.209 24.712 26.449 23.356 26.929 22.108C27.409 20.86 28.081 19.792 28.945 18.904C29.833 18.016 30.877 17.32 32.077 16.816C33.301 16.312 34.633 16.06 36.073 16.06C38.401 16.06 40.201 16.696 41.473 17.968C42.745 19.216 43.381 21.016 43.381 23.368C43.381 23.704 43.309 23.908 43.165 23.98C43.045 24.052 42.745 24.088 42.265 24.088H30.421C30.373 24.28 30.337 24.52 30.313 24.808C30.289 25.072 30.277 25.372 30.277 25.708C30.277 26.956 30.421 28.096 30.709 29.128C31.021 30.136 31.453 31 32.005 31.72C32.581 32.44 33.253 33.004 34.021 33.412C34.813 33.796 35.689 33.988 36.649 33.988C37.657 33.988 38.593 33.772 39.457 33.34C40.321 32.884 41.209 32.152 42.121 31.144L43.237 32.152ZM37.297 22.432C37.777 22.432 38.161 22.42 38.449 22.396C38.737 22.372 38.953 22.324 39.097 22.252C39.241 22.18 39.337 22.084 39.385 21.964C39.433 21.82 39.457 21.64 39.457 21.424C39.457 20.32 39.097 19.444 38.377 18.796C37.681 18.124 36.721 17.788 35.497 17.788C32.905 17.788 31.297 19.336 30.673 22.432H37.297ZM47.0977 35.5H46.3057V29.308H47.2057C48.1417 32.692 49.8457 34.384 52.3177 34.384C53.2777 34.384 54.0337 34.156 54.5857 33.7C55.1617 33.22 55.4497 32.5 55.4497 31.54C55.4497 31.18 55.3897 30.88 55.2697 30.64C55.1737 30.376 54.9697 30.112 54.6577 29.848C54.3697 29.56 53.9497 29.236 53.3977 28.876C52.8697 28.516 52.1617 28.06 51.2737 27.508C50.4577 27.004 49.7497 26.536 49.1497 26.104C48.5497 25.672 48.0457 25.24 47.6377 24.808C47.2297 24.352 46.9177 23.872 46.7017 23.368C46.5097 22.864 46.4137 22.276 46.4137 21.604C46.4137 20.788 46.5457 20.044 46.8097 19.372C47.0977 18.676 47.4817 18.088 47.9617 17.608C48.4417 17.128 49.0057 16.756 49.6537 16.492C50.3017 16.204 51.0097 16.06 51.7777 16.06C52.4257 16.06 53.0977 16.168 53.7937 16.384C54.4897 16.576 55.1017 16.84 55.6297 17.176L56.3497 16.42H57.0337V21.604H56.0977C55.5697 20.14 54.9937 19.096 54.3697 18.472C53.7457 17.848 52.9777 17.536 52.0657 17.536C51.2497 17.536 50.5897 17.752 50.0857 18.184C49.6057 18.616 49.3657 19.216 49.3657 19.984C49.3657 20.392 49.4257 20.752 49.5457 21.064C49.6897 21.352 49.9057 21.64 50.1937 21.928C50.4817 22.216 50.8417 22.516 51.2737 22.828C51.7297 23.116 52.2697 23.452 52.8937 23.836C53.9257 24.484 54.8017 25.06 55.5217 25.564C56.2657 26.068 56.8657 26.572 57.3217 27.076C57.7777 27.556 58.1137 28.06 58.3297 28.588C58.5457 29.116 58.6537 29.716 58.6537 30.388C58.6537 32.092 58.1017 33.436 56.9977 34.42C55.8937 35.38 54.4417 35.86 52.6417 35.86C50.7697 35.86 49.1617 35.32 47.8177 34.24L47.0977 35.5ZM60.7094 18.688V17.356C61.9814 16.612 62.9774 15.868 63.6974 15.124C64.4174 14.38 64.9694 13.492 65.3534 12.46H66.3974V16.996H71.2214V18.688H66.3974V29.632C66.3974 30.472 66.4334 31.18 66.5054 31.756C66.6014 32.332 66.7454 32.8 66.9374 33.16C67.1294 33.496 67.3814 33.736 67.6934 33.88C68.0054 34.024 68.4014 34.096 68.8814 34.096C69.4814 34.096 69.9854 33.976 70.3934 33.736C70.8254 33.472 71.2454 33.04 71.6534 32.44L72.5534 33.124C72.2174 34.012 71.6294 34.696 70.7894 35.176C69.9734 35.632 68.9534 35.86 67.7294 35.86C66.1454 35.86 64.9334 35.488 64.0934 34.744C63.2774 33.976 62.8694 32.884 62.8694 31.468V18.688H60.7094ZM80.0028 29.776C80.0028 30.712 80.0388 31.468 80.1108 32.044C80.2068 32.596 80.3748 33.04 80.6148 33.376C80.8548 33.688 81.1908 33.904 81.6228 34.024C82.0548 34.144 82.6308 34.216 83.3508 34.24V35.5H73.0188V34.24C73.7388 34.216 74.3268 34.144 74.7828 34.024C75.2388 33.88 75.5868 33.664 75.8268 33.376C76.0908 33.064 76.2588 32.644 76.3308 32.116C76.4268 31.564 76.4748 30.868 76.4748 30.028V25.42C76.4748 24.028 76.4508 22.888 76.4028 22C76.3788 21.088 76.3188 20.464 76.2228 20.128C76.1028 19.576 75.8268 19.204 75.3948 19.012C74.9628 18.796 74.1468 18.688 72.9468 18.688V17.428L80.0028 16.06V29.776ZM75.8628 8.752C75.8628 8.128 76.0788 7.6 76.5108 7.168C76.9428 6.736 77.4708 6.52 78.0948 6.52C78.7188 6.52 79.2468 6.736 79.6788 7.168C80.1108 7.6 80.3268 8.128 80.3268 8.752C80.3268 9.376 80.1108 9.904 79.6788 10.336C79.2468 10.768 78.7188 10.984 78.0948 10.984C77.4708 10.984 76.9428 10.768 76.5108 10.336C76.0788 9.904 75.8628 9.376 75.8628 8.752ZM90.9404 29.74C90.9404 30.748 90.9644 31.54 91.0124 32.116C91.0604 32.692 91.1804 33.136 91.3724 33.448C91.5884 33.736 91.8884 33.928 92.2724 34.024C92.6564 34.12 93.1964 34.192 93.8924 34.24V35.5H84.3164V34.24C85.0124 34.192 85.5644 34.12 85.9724 34.024C86.3804 33.928 86.6924 33.736 86.9084 33.448C87.1244 33.16 87.2564 32.752 87.3044 32.224C87.3764 31.672 87.4124 30.94 87.4124 30.028V25.42C87.4124 24.052 87.3884 22.912 87.3404 22C87.3164 21.088 87.2564 20.464 87.1604 20.128C87.0884 19.816 87.0044 19.576 86.9084 19.408C86.8124 19.216 86.6564 19.072 86.4404 18.976C86.2244 18.856 85.9364 18.784 85.5764 18.76C85.2404 18.712 84.7964 18.688 84.2444 18.688V17.428L90.1124 16.06L90.5804 19.66H90.7604C91.8404 18.436 92.9684 17.536 94.1444 16.96C95.3444 16.36 96.6644 16.06 98.1044 16.06C99.6164 16.06 100.888 16.372 101.92 16.996C102.952 17.596 103.672 18.472 104.08 19.624H104.224C105.112 18.496 106.192 17.62 107.464 16.996C108.736 16.372 110.092 16.06 111.532 16.06C112.66 16.06 113.68 16.252 114.592 16.636C115.528 16.996 116.236 17.5 116.716 18.148C117.148 18.7 117.448 19.432 117.616 20.344C117.808 21.232 117.904 22.456 117.904 24.016V29.74C117.904 30.724 117.928 31.504 117.976 32.08C118.048 32.656 118.18 33.1 118.372 33.412C118.564 33.724 118.852 33.928 119.236 34.024C119.644 34.12 120.196 34.192 120.892 34.24V35.5H111.316V34.24C111.988 34.216 112.528 34.156 112.936 34.06C113.344 33.94 113.656 33.736 113.872 33.448C114.088 33.136 114.22 32.716 114.268 32.188C114.34 31.66 114.376 30.94 114.376 30.028V25.492C114.376 24.124 114.304 22.972 114.16 22.036C114.016 21.076 113.776 20.308 113.44 19.732C113.104 19.132 112.66 18.7 112.108 18.436C111.58 18.172 110.932 18.04 110.164 18.04C109.108 18.04 108.112 18.34 107.176 18.94C106.264 19.516 105.544 20.296 105.016 21.28C104.896 21.52 104.788 21.76 104.692 22C104.62 22.216 104.56 22.468 104.512 22.756C104.464 23.02 104.428 23.344 104.404 23.728C104.404 24.112 104.404 24.592 104.404 25.168V29.74C104.404 30.724 104.428 31.504 104.476 32.08C104.524 32.656 104.644 33.1 104.836 33.412C105.052 33.724 105.364 33.928 105.772 34.024C106.18 34.12 106.732 34.192 107.428 34.24V35.5H97.8524V34.24C98.5244 34.192 99.0644 34.12 99.4724 34.024C99.8804 33.928 100.18 33.736 100.372 33.448C100.588 33.16 100.72 32.752 100.768 32.224C100.84 31.672 100.876 30.94 100.876 30.028V25.492C100.876 24.1 100.804 22.936 100.66 22C100.516 21.04 100.276 20.272 99.9404 19.696C99.6284 19.096 99.2084 18.676 98.6804 18.436C98.1524 18.172 97.5044 18.04 96.7364 18.04C95.6564 18.04 94.6364 18.34 93.6764 18.94C92.7404 19.516 92.0324 20.296 91.5524 21.28C91.4324 21.52 91.3244 21.76 91.2284 22C91.1564 22.216 91.0964 22.468 91.0484 22.756C91.0004 23.02 90.9644 23.344 90.9404 23.728C90.9404 24.112 90.9404 24.592 90.9404 25.168V29.74ZM132.241 16.06C133.609 16.06 134.905 16.312 136.129 16.816C137.353 17.296 138.421 17.968 139.333 18.832C140.269 19.696 141.001 20.728 141.529 21.928C142.081 23.104 142.357 24.4 142.357 25.816C142.357 27.28 142.081 28.624 141.529 29.848C141.001 31.072 140.269 32.128 139.333 33.016C138.421 33.904 137.353 34.6 136.129 35.104C134.905 35.608 133.609 35.86 132.241 35.86C130.897 35.86 129.613 35.62 128.389 35.14C127.189 34.636 126.133 33.94 125.221 33.052C124.309 32.164 123.589 31.108 123.061 29.884C122.533 28.636 122.269 27.28 122.269 25.816C122.269 24.4 122.533 23.092 123.061 21.892C123.589 20.692 124.309 19.66 125.221 18.796C126.133 17.932 127.189 17.26 128.389 16.78C129.613 16.3 130.897 16.06 132.241 16.06ZM132.241 17.788C131.353 17.788 130.537 17.98 129.793 18.364C129.073 18.748 128.449 19.3 127.921 20.02C127.417 20.716 127.021 21.568 126.733 22.576C126.469 23.56 126.337 24.652 126.337 25.852C126.337 27.1 126.469 28.228 126.733 29.236C127.021 30.244 127.417 31.108 127.921 31.828C128.449 32.524 129.073 33.064 129.793 33.448C130.513 33.832 131.329 34.024 132.241 34.024C133.153 34.024 133.981 33.832 134.725 33.448C135.469 33.064 136.105 32.512 136.633 31.792C137.161 31.072 137.569 30.208 137.857 29.2C138.145 28.192 138.289 27.076 138.289 25.852C138.289 24.652 138.145 23.56 137.857 22.576C137.569 21.592 137.161 20.752 136.633 20.056C136.105 19.336 135.469 18.784 134.725 18.4C133.981 17.992 133.153 17.788 132.241 17.788ZM150.792 29.848C150.792 30.832 150.816 31.612 150.864 32.188C150.912 32.74 151.032 33.172 151.224 33.484C151.44 33.772 151.74 33.964 152.124 34.06C152.532 34.156 153.084 34.228 153.78 34.276V35.5H144.348V34.276C145.02 34.228 145.548 34.156 145.932 34.06C146.34 33.964 146.652 33.772 146.868 33.484C147.084 33.196 147.216 32.788 147.264 32.26C147.336 31.732 147.372 31.012 147.372 30.1V25.312C147.372 22.456 147.3 20.716 147.156 20.092C147.084 19.78 146.988 19.528 146.868 19.336C146.772 19.12 146.616 18.964 146.4 18.868C146.184 18.748 145.908 18.676 145.572 18.652C145.236 18.604 144.804 18.58 144.276 18.58V17.428L150.036 16.06L150.468 19.624H150.612C151.524 18.496 152.592 17.62 153.816 16.996C155.04 16.372 156.372 16.06 157.812 16.06C158.916 16.06 159.924 16.24 160.836 16.6C161.748 16.96 162.444 17.452 162.924 18.076C163.332 18.628 163.62 19.348 163.788 20.236C163.956 21.1 164.04 22.3 164.04 23.836V29.848C164.04 30.832 164.064 31.612 164.112 32.188C164.184 32.74 164.316 33.172 164.508 33.484C164.7 33.772 164.988 33.964 165.372 34.06C165.78 34.156 166.308 34.228 166.956 34.276V35.5H157.632V34.276C158.304 34.252 158.832 34.192 159.216 34.096C159.624 33.976 159.924 33.772 160.116 33.484C160.332 33.196 160.464 32.788 160.512 32.26C160.584 31.708 160.62 30.988 160.62 30.1V25.348C160.62 23.98 160.548 22.828 160.404 21.892C160.26 20.956 160.02 20.2 159.684 19.624C159.372 19.048 158.952 18.64 158.424 18.4C157.896 18.136 157.26 18.004 156.516 18.004C155.436 18.004 154.44 18.292 153.528 18.868C152.64 19.42 151.944 20.188 151.44 21.172C151.32 21.412 151.212 21.64 151.116 21.856C151.044 22.072 150.984 22.324 150.936 22.612C150.888 22.9 150.852 23.236 150.828 23.62C150.804 23.98 150.792 24.448 150.792 25.024V29.848ZM174.964 29.776C174.964 30.712 175 31.468 175.072 32.044C175.168 32.596 175.336 33.04 175.576 33.376C175.816 33.688 176.152 33.904 176.584 34.024C177.016 34.144 177.592 34.216 178.312 34.24V35.5H167.98V34.24C168.7 34.216 169.288 34.144 169.744 34.024C170.2 33.88 170.548 33.664 170.788 33.376C171.052 33.064 171.22 32.644 171.292 32.116C171.388 31.564 171.436 30.868 171.436 30.028V25.42C171.436 24.028 171.412 22.888 171.364 22C171.34 21.088 171.28 20.464 171.184 20.128C171.064 19.576 170.788 19.204 170.356 19.012C169.924 18.796 169.108 18.688 167.908 18.688V17.428L174.964 16.06V29.776ZM170.824 8.752C170.824 8.128 171.04 7.6 171.472 7.168C171.904 6.736 172.432 6.52 173.056 6.52C173.68 6.52 174.208 6.736 174.64 7.168C175.072 7.6 175.288 8.128 175.288 8.752C175.288 9.376 175.072 9.904 174.64 10.336C174.208 10.768 173.68 10.984 173.056 10.984C172.432 10.984 171.904 10.768 171.472 10.336C171.04 9.904 170.824 9.376 170.824 8.752ZM190.51 24.844C189.142 25.372 187.978 25.888 187.018 26.392C186.082 26.896 185.326 27.4 184.75 27.904C184.174 28.408 183.754 28.912 183.49 29.416C183.25 29.92 183.13 30.436 183.13 30.964C183.13 31.756 183.394 32.404 183.922 32.908C184.45 33.412 185.146 33.664 186.01 33.664C186.634 33.664 187.21 33.508 187.738 33.196C188.29 32.884 188.77 32.464 189.178 31.936C189.586 31.384 189.91 30.748 190.15 30.028C190.39 29.284 190.51 28.504 190.51 27.688V24.844ZM190.51 23.296V21.82C190.51 18.892 189.262 17.428 186.766 17.428C186.358 17.428 186.01 17.464 185.722 17.536C185.434 17.608 185.194 17.728 185.002 17.896C184.81 18.064 184.63 18.304 184.462 18.616C184.318 18.928 184.174 19.312 184.03 19.768C183.766 20.464 183.502 20.932 183.238 21.172C182.998 21.388 182.638 21.496 182.158 21.496C180.958 21.496 180.358 20.896 180.358 19.696C180.358 18.544 180.97 17.656 182.194 17.032C183.418 16.384 185.158 16.06 187.414 16.06C189.814 16.06 191.518 16.492 192.526 17.356C193.534 18.196 194.038 19.636 194.038 21.676V29.74C194.038 32.476 194.578 33.844 195.658 33.844C195.994 33.844 196.318 33.808 196.63 33.736C196.942 33.64 197.206 33.412 197.422 33.052L197.926 33.916C197.638 34.468 197.11 34.936 196.342 35.32C195.574 35.68 194.77 35.86 193.93 35.86C192.874 35.86 192.082 35.524 191.554 34.852C191.05 34.18 190.798 33.232 190.798 32.008H190.618C189.994 33.184 189.13 34.12 188.026 34.816C186.922 35.488 185.698 35.824 184.354 35.824C182.842 35.824 181.654 35.44 180.79 34.672C179.926 33.904 179.494 32.872 179.494 31.576C179.494 31 179.59 30.448 179.782 29.92C179.998 29.392 180.334 28.888 180.79 28.408C181.246 27.928 181.846 27.46 182.59 27.004C183.334 26.524 184.246 26.044 185.326 25.564L190.51 23.296ZM204.323 29.884C204.323 30.796 204.359 31.528 204.431 32.08C204.503 32.632 204.647 33.064 204.863 33.376C205.103 33.688 205.427 33.904 205.835 34.024C206.267 34.144 206.831 34.216 207.527 34.24V35.5H197.591V34.24C198.311 34.216 198.887 34.144 199.319 34.024C199.751 33.88 200.087 33.664 200.327 33.376C200.591 33.088 200.759 32.692 200.831 32.188C200.927 31.66 200.975 30.976 200.975 30.136V14.62C200.975 13.324 200.951 12.244 200.903 11.38C200.879 10.492 200.831 9.892 200.759 9.58C200.639 9.028 200.351 8.656 199.895 8.464C199.463 8.272 198.671 8.176 197.519 8.176V6.952L204.323 5.62V29.884Z" fill="#222021"/>
<path fill-rule="evenodd" clip-rule="evenodd" d="M274.99 14.4746C266.666 29.832 250.038 36.0756 234.595 27.4298C234.08 27.1419 233.428 27.3219 233.138 27.8257C232.848 28.3385 233.029 28.9862 233.544 29.2741C250.097 38.5497 267.95 31.9372 276.873 15.4822C277.152 14.9694 276.957 14.3215 276.437 14.0426C275.918 13.7727 275.269 13.9618 274.99 14.4746Z" fill="#222021"/>
<path d="M247.591 20.843C249.31 20.843 250.704 19.46 250.704 17.754C250.704 16.0479 249.31 14.6649 247.591 14.6649C245.871 14.6649 244.478 16.0479 244.478 17.754C244.478 19.46 245.871 20.843 247.591 20.843Z" fill="#222021"/>
<path d="M260.48 17.5573C262.165 17.5573 263.532 16.2013 263.532 14.5287C263.532 12.856 262.165 11.5 260.48 11.5C258.794 11.5 257.427 12.856 257.427 14.5287C257.427 16.2013 258.794 17.5573 260.48 17.5573Z" fill="#222021"/>
</svg>
